<svg xmlns="http://www.w3.org/2000/svg" viewBox="0 0 590.23857 132.44451"><title>Asset 2SVG</title><path d="M10.5452,103.21963H17.762V56.88234A39.42938,39.42938,0,0,1,56.8825,17.762,39.4284,39.4284,0,0,1,96.0033,56.88234,39.42945,39.42945,0,0,1,56.8825,96.00283H53.28915V67.69562H56.8825A10.81329,10.81329,0,1,0,46.06968,56.88234v75.56217H35.524V56.88234A21.35865,21.35865,0,1,1,62.21533,77.54841v7.39611A28.56923,28.56923,0,0,0,56.8825,28.30705,28.84535,28.84535,0,0,0,28.30768,56.88234v56.88249H0V56.88234C0,25.77522,25.77522,0,56.8825,0c31.10664,0,56.8828,25.77569,56.8828,56.88234,0,31.10586-25.77663,56.88249-56.8828,56.88249H53.28915v-10.5452H56.8825a46.70018,46.70018,0,0,0,46.33729-46.33729A46.69922,46.69922,0,0,0,56.8825,10.5452,46.69922,46.69922,0,0,0,10.5452,56.88234Z" fill-rule="evenodd"/><path d="M158.66874,25.49326a1.80088,1.80088,0,0,1,1.80176-1.80274h22.28564a21.14806,21.14806,0,1,1,.09522,42.2959H170.99687V88.27255a1.86531,1.86531,0,0,1-1.80176,1.80176H160.4705a1.80067,1.80067,0,0,1-1.80176-1.80176Zm23.3291,28.92382a9.77443,9.77443,0,0,0,9.76758-9.8623c0-5.2168-4.457-9.19922-9.76758-9.19922h-11.001V54.41708Z"/><path d="M214.8079,25.49326a1.80088,1.80088,0,0,1,1.80176-1.80274h38.59717a1.80088,1.80088,0,0,1,1.80176,1.80274v7.77539a1.80087,1.80087,0,0,1-1.80176,1.80273H227.136V50.62314h23.42383a1.86556,1.86556,0,0,1,1.80224,1.80273V60.297a1.80077,1.80077,0,0,1-1.80224,1.80176H227.136v16.5957h28.0708a1.80067,1.80067,0,0,1,1.80176,1.80176v7.77636a1.80067,1.80067,0,0,1-1.80176,1.80176H216.60966a1.80067,1.80067,0,0,1-1.80176-1.80176Z"/><path d="M266.67948,80.78037l3.41407-5.87989a2.197,2.197,0,0,1,3.22412-.66308c.47412.28418,8.15576,5.87988,14.31982,5.87988,4.93164,0,8.62988-3.22461,8.62988-7.30273,0-4.83594-4.07763-8.15528-12.04394-11.37989-8.91406-3.60351-17.82861-9.29394-17.82861-20.48437,0-8.43946,6.25927-18.208,21.3374-18.208a33.38265,33.38265,0,0,1,18.9668,6.35449,2.34808,2.34808,0,0,1,.56933,3.12891l-3.604,5.40625c-.7583,1.13769-2.18115,1.89648-3.31885,1.13769-.75879-.47461-7.96631-5.21582-13.18213-5.21582-5.40527,0-8.34521,3.60352-8.34521,6.6377,0,4.458,3.50879,7.49219,11.19043,10.62207,9.19873,3.69824,19.81982,9.19824,19.81982,21.43164,0,9.76855-8.43994,18.77734-21.81152,18.77734-11.94873,0-18.9668-5.59472-20.86328-7.39648C266.30009,82.77255,265.826,82.29794,266.67948,80.78037Z"/><path d="M313.33525,87.60849,342.8289,23.78623a1.70258,1.70258,0,0,1,1.61133-1.04395h.94824a1.6114,1.6114,0,0,1,1.6123,1.04395l29.2085,63.82226a1.67425,1.67425,0,0,1-1.61231,2.46582h-8.25c-1.42285,0-2.08691-.56933-2.751-1.89648L358.95,77.93564H330.595l-4.647,10.24219a2.85811,2.85811,0,0,1-2.75,1.89648h-8.25049A1.67439,1.67439,0,0,1,313.33525,87.60849Zm40.96826-20.19922L344.82011,46.546H344.535l-9.293,20.86328Z"/><path d="M376.11161,25.96689a1.65385,1.65385,0,0,1,1.707-2.27637h8.72461a1.94818,1.94818,0,0,1,1.707,1.32813l9.86328,37.83886h.3789L413.5706,23.78623a1.53137,1.53137,0,0,1,1.6123-1.04395h1.707a1.53058,1.53058,0,0,1,1.61231,1.04395l15.17383,39.07128h.3789l9.67285-37.83886a1.94818,1.94818,0,0,1,1.707-1.32813h8.7246a1.65325,1.65325,0,0,1,1.707,2.27637L437.94267,89.69541a1.82181,1.82181,0,0,1-1.70606,1.32714H434.719a1.61161,1.61161,0,0,1-1.61231-1.043l-16.97559-42.96h-.47363l-16.78613,42.96a1.61029,1.61029,0,0,1-1.61133,1.043h-1.51758a1.822,1.822,0,0,1-1.707-1.32714Z"/><path d="M466.95927,25.49326a1.86549,1.86549,0,0,1,1.80176-1.80274h8.81933a1.86548,1.86548,0,0,1,1.80176,1.80274V88.27255a1.8653,1.8653,0,0,1-1.80176,1.80176H468.761a1.86531,1.86531,0,0,1-1.80176-1.80176Z"/><path d="M492.75126,80.78037l3.41406-5.87989a2.19755,2.19755,0,0,1,3.22461-.66308c.47461.28418,8.15625,5.87988,14.32032,5.87988,4.93066,0,8.62988-3.22461,8.62988-7.30273,0-4.83594-4.07813-8.15528-12.044-11.37989-8.915-3.60351-17.8291-9.29394-17.8291-20.48437,0-8.43946,6.25879-18.208,21.33789-18.208a33.3874,33.3874,0,0,1,18.9668,6.35449,2.34738,2.34738,0,0,1,.56836,3.12891l-3.60352,5.40625c-.75879,1.13769-2.18066,1.89648-3.31933,1.13769-.75879-.47461-7.96582-5.21582-13.18164-5.21582-5.40528,0-8.34571,3.60352-8.34571,6.6377,0,4.458,3.50977,7.49219,11.19043,10.62207,9.19922,3.69824,19.82032,9.19824,19.82032,21.43164,0,9.76855-8.44043,18.77734-21.81153,18.77734-11.94922,0-18.96679-5.59472-20.86328-7.39648C492.37236,82.77255,491.89775,82.29794,492.75126,80.78037Z"/><path d="M548.03739,25.49326a1.80088,1.80088,0,0,1,1.80176-1.80274h38.59766a1.80088,1.80088,0,0,1,1.80176,1.80274v7.77539a1.80087,1.80087,0,0,1-1.80176,1.80273H560.36552V50.62314h23.42383a1.86549,1.86549,0,0,1,1.80176,1.80273V60.297a1.80067,1.80067,0,0,1-1.80176,1.80176H560.36552v16.5957h28.07129a1.80067,1.80067,0,0,1,1.80176,1.80176v7.77636a1.80067,1.80067,0,0,1-1.80176,1.80176H549.83915a1.80067,1.80067,0,0,1-1.80176-1.80176Z"/></svg>