<svg xmlns="http://www.w3.org/2000/svg" xmlns:xlink="http://www.w3.org/1999/xlink" viewBox="0 0 113.7653 132.44451"><defs><linearGradient id="a" x1="-0.00016" y1="113.76467" x2="96.98861" y2="16.7759" gradientUnits="userSpaceOnUse"><stop offset="0" stop-color="#67deff"/><stop offset="1" stop-color="#2ec0fe"/></linearGradient></defs><title>Asset 3SVG</title><path d="M10.5452,103.21963H17.762V56.88234A39.42938,39.42938,0,0,1,56.8825,17.762,39.4284,39.4284,0,0,1,96.0033,56.88234,39.42945,39.42945,0,0,1,56.8825,96.00283H53.28915V67.69562H56.8825A10.81329,10.81329,0,1,0,46.06968,56.88234v75.56217H35.524V56.88234A21.35865,21.35865,0,1,1,62.21533,77.54841v7.39611A28.56923,28.56923,0,0,0,56.8825,28.30705,28.84535,28.84535,0,0,0,28.30768,56.88234v56.88249H0V56.88234C0,25.77522,25.77522,0,56.8825,0c31.10664,0,56.8828,25.77569,56.8828,56.88234,0,31.10586-25.77663,56.88249-56.8828,56.88249H53.28915v-10.5452H56.8825a46.70018,46.70018,0,0,0,46.33729-46.33729A46.69922,46.69922,0,0,0,56.8825,10.5452,46.69922,46.69922,0,0,0,10.5452,56.88234Z" fill-rule="evenodd" fill="url(#a)"/></svg>